Coordinates
version=1
nRows=16
nColumns=42
inDegrees=yes

Units are S.I. units (second, meters, Newtons, ...)
If the header above contains a line with 'inDegrees', this indicates whether rotational values are in degrees (yes) or radians (no).

endheader
time	pelvis_tilt	pelvis_list	pelvis_rotation	pelvis_tx	pelvis_ty	pelvis_tz	hip_flexion_r	hip_adduction_r	hip_rotation_r	knee_angle_r	knee_angle_r_beta	ankle_angle_r	subtalar_angle_r	mtp_angle_r	hip_flexion_l	hip_adduction_l	hip_rotation_l	knee_angle_l	knee_angle_l_beta	ankle_angle_l	subtalar_angle_l	mtp_angle_l	lumbar_extension	lumbar_bending	lumbar_rotation	sh_tx_r	sh_ty_r	sh_tz_r	sh_plane_elev_r	sh_elev_r	sh_axial_rot_r	elbow_flex_r	pro_sup_r	sh_tx_l	sh_ty_l	sh_tz_l	sh_plane_elev_l	sh_elev_l	sh_axial_rot_l	elbow_flex_l	pro_sup_l
      2.33898300	     -6.87031949	     -1.15849025	      1.48878715	      0.29368852	      0.92764407	     -0.05185425	      3.74137460	     -6.82301741	     -9.20508660	      0.50735712	      0.00885505	      2.03979712	     -0.05731043	     -7.49999987	      3.97206164	     -6.19520590	     -6.19306516	      1.02442919	      0.01787966	      7.58549784	     -2.18436709	     -7.49999987	      5.66667479	      5.20131286	     -2.43994206	     -0.00691720	     -0.01714880	     -0.00670823	     -3.81980819	      6.21068175	      3.75620663	     29.53730220	     81.77582162	     -0.02236723	      0.02518888	     -0.00451363	      5.19739520	     72.20651851	     -7.43224399	    102.09767363	     80.87479756
      2.35593220	     -6.92947425	     -1.17112705	      1.50357748	      0.29344179	      0.92768592	     -0.05180629	      3.76617799	     -6.83300286	     -9.14840164	      0.49611145	      0.00865878	      2.08669527	     -0.14413777	     -7.49999987	      4.05971102	     -6.20181801	     -6.26770818	      1.06136170	      0.01852426	      7.49350018	     -2.21347493	     -7.49999987	      5.86407171	      5.14555503	     -2.48862331	     -0.00656957	     -0.01717240	     -0.00672503	     -3.63501914	      6.17620404	      3.98178289	     29.21059916	     81.03165915	     -0.02231780	      0.02525975	     -0.00448155	      5.40603670	     72.04241400	     -7.81610190	    101.98108554	     80.17482521
      2.37288140	     -6.96031165	     -1.16914542	      1.52212394	      0.29360055	      0.92755853	     -0.05207125	      3.75849473	     -6.86756986	     -9.08159086	      0.49430866	      0.00862731	      2.12109076	     -0.23670448	     -7.49999987	      4.09575157	     -6.18661571	     -6.26461399	      1.07188297	      0.01870789	      7.52329565	     -2.29765506	     -7.49999987	      5.97144645	      5.14385580	     -2.34835514	     -0.00688874	     -0.01714263	     -0.00673071	     -3.59035826	      6.23754622	      4.16355730	     28.95518212	     80.16639108	     -0.02201837	      0.02581605	     -0.00457215	      5.15539951	     71.68469704	     -8.08918791	    101.52816988	     79.35956953
      2.38983050	     -6.93845995	     -1.16872736	      1.55483746	      0.29330271	      0.92758276	     -0.05190971	      3.70179238	     -6.88088305	     -8.98525479	      0.48803971	      0.00851790	      2.15883531	     -0.37365783	     -7.49999987	      4.08745148	     -6.18869953	     -6.25426498	      1.10330863	      0.01925637	      7.56744504	     -2.25709004	     -7.49999987	      6.03223694	      5.08059733	     -2.38715328	     -0.00676648	     -0.01711149	     -0.00675831	     -3.63302845	      6.18861764	      4.20886205	     28.86666828	     79.76007430	     -0.02244199	      0.02629669	     -0.00463501	      5.14034050	     71.46606774	     -8.44737663	    101.24288672	     78.97642935
      2.40677970	     -7.13569351	     -1.18326825	      1.59038712	      0.29351427	      0.92731350	     -0.05213069	      3.88510586	     -6.89549231	     -8.83737420	      0.50470709	      0.00880880	      2.16888671	     -0.36156813	     -7.49999987	      4.34730860	     -6.20243935	     -6.16213173	      1.18463086	      0.02067571	      7.66496163	     -2.24452732	     -7.49999987	      6.34050162	      4.97668270	     -2.38871815	     -0.00824408	     -0.01714591	     -0.00665628	     -3.52840929	      6.06151898	      4.32418990	     28.82251618	     79.29357124	     -0.02328480	      0.02716307	     -0.00468085	      5.30325736	     71.23944720	     -8.59231113	    101.46506191	     78.55207298
      2.42372880	     -6.81933695	     -1.16332653	      1.63654114	      0.29309424	      0.92775998	     -0.05204657	      3.52176092	     -6.89905843	     -8.93991162	      0.48967476	      0.00854644	      2.15525367	     -0.52013067	     -7.49999987	      3.98869129	     -6.18289943	     -6.29181318	      1.13332482	      0.01978025	      7.59851916	     -2.09010647	     -7.49999987	      6.13456740	      4.91002906	     -2.66829467	     -0.00677713	     -0.01700325	     -0.00681970	     -3.84136556	      5.92885082	      4.26621417	     28.50795131	     78.75632907	     -0.02331840	      0.02746861	     -0.00476083	      5.19880333	     70.94675777	     -9.11034942	    101.25504947	     78.14448208
      2.44067800	     -6.60446459	     -1.17960171	      1.67495339	      0.29316230	      0.92780696	     -0.05229976	      3.28511144	     -6.86245378	     -9.04628831	      0.48199329	      0.00841237	      2.09419525	     -0.55779996	     -7.49999987	      3.74422007	     -6.19194364	     -6.32098860	      1.08241220	      0.01889166	      7.63484595	     -2.03860644	     -7.49999987	      5.87337973	      4.83997824	     -2.76719787	     -0.00688259	     -0.01694152	     -0.00685596	     -4.19259594	      5.79444203	      4.06854513	     28.81992653	     78.54755043	     -0.02448291	      0.02771794	     -0.00475147	      5.32978687	     71.05535418	     -9.51209239	    101.12814526	     78.05946576
      2.45762710	     -6.59442672	     -1.19953936	      1.67398575	      0.29280292	      0.92785271	     -0.05212521	      3.29229430	     -6.81983021	     -9.09531679	      0.48759531	      0.00851014	      2.02283922	     -0.64050563	     -7.49999987	      3.74397839	     -6.20456102	     -6.31987805	      1.08102863	      0.01886751	      7.61257650	     -2.10938674	     -7.49999987	      5.96187654	      4.79065867	     -2.83941910	     -0.00644692	     -0.01694194	     -0.00684533	     -4.27503030	      5.71723045	      4.21177013	     28.74871536	     77.89616002	     -0.02503859	      0.02810231	     -0.00477008	      5.60984901	     71.07705430	     -9.90826880	    100.85813752	     77.50812375
      2.47457630	     -6.72992932	     -1.23585387	      1.60984543	      0.29296667	      0.93044333	     -0.05208983	      3.47320627	     -6.76168296	     -8.98326775	      0.50138727	      0.00875086	      2.07195454	     -0.48919844	     -7.49999987	      3.91058958	     -6.25050480	     -6.30076447	      1.13789562	      0.01986003	      7.77527216	     -2.18759530	     -7.49999987	      6.30971906	      4.74435557	     -2.80787393	     -0.00667720	     -0.01704365	     -0.00680372	     -4.18525496	      5.66810786	      4.39982565	     28.51140458	     77.88912563	     -0.02424636	      0.02900722	     -0.00458540	      5.80593634	     70.89970240	    -10.12002673	    101.13288198	     77.50804236
      2.49152540	     -6.65503050	     -1.24878777	      1.56257334	      0.29249980	      0.92723917	     -0.05158254	      3.44618350	     -6.74587166	     -9.15390778	      0.51242296	      0.00894347	      2.04349862	     -0.56272419	     -7.49999987	      3.80795740	     -6.25764626	     -6.42463051	      1.09303099	      0.01907699	      7.69838330	     -2.20119536	     -7.49999987	      6.36121561	      4.71214604	     -2.86914230	     -0.00672784	     -0.01692089	     -0.00684355	     -4.26105595	      5.60903613	      4.33852817	     28.51769255	     77.91043815	     -0.02327766	      0.03071112	     -0.00472076	      5.75609971	     71.07094247	    -10.37098515	    101.04025488	     77.53430464
      2.50847460	     -6.31888506	     -1.18145722	      1.53227529	      0.29258470	      0.92476673	     -0.05196566	      3.12222991	     -6.82061959	     -9.19307862	      0.50407341	      0.00879774	      1.94316444	     -0.70188871	     -7.49999987	      3.39958338	     -6.15750699	     -6.43360324	      0.96116162	      0.01677543	      7.65401707	     -1.96253617	     -7.49999987	      5.70423982	      4.78800374	     -1.86709982	     -0.00966357	     -0.01670427	     -0.00689973	     -9.48649100	      5.16335701	      4.48716849	     29.79931488	     83.31937965	     -0.02543603	      0.02928145	     -0.00498113	      7.98938627	     71.60984662	    -12.64701713	     99.63821378	     82.78946826
      2.52542370	     -6.35234411	     -1.16623065	      1.46615193	      0.29238189	      0.92810037	     -0.05195576	      3.21524146	     -6.84722536	     -9.17668789	      0.51514300	      0.00899094	      2.01437165	     -0.72412154	     -7.49999987	      3.38067474	     -6.10496081	     -6.34907167	      0.84288342	      0.01471109	      7.76267206	     -1.91479384	     -7.49999987	      5.90178063	      4.87803636	     -2.00488209	     -0.00976568	     -0.01659962	     -0.00697745	     -9.53501425	      5.18465918	      4.44541411	     29.90896692	     83.28383581	     -0.02444135	      0.02938623	     -0.00508217	      7.96364845	     71.78293170	    -13.05129466	     99.64699584	     82.72486731
      2.54237290	     -6.35722649	     -1.16937252	      1.36393657	      0.29254261	      0.92501216	     -0.05179334	      3.27904051	     -6.85281235	     -9.22781338	      0.53967057	      0.00941903	      2.09825020	     -0.77681332	     -7.49999987	      3.35067182	     -6.08673092	     -6.34012840	      0.80290118	      0.01401327	      7.88774563	     -1.93194575	     -7.49999987	      5.97415994	      4.97149947	     -1.99473999	     -0.00957729	     -0.01637037	     -0.00692616	     -9.57463272	      5.17785682	      4.41768328	     29.93430126	     83.27789001	     -0.02438133	      0.03070937	     -0.00538658	      7.90184159	     71.84702437	    -13.23924342	     99.66988996	     82.71065352
      2.55932200	     -6.54736288	     -1.19252110	      1.24223120	      0.29220396	      0.92813942	     -0.05145869	      3.55793517	     -6.82668951	     -9.14119160	      0.57173755	      0.00997870	      2.07792413	     -0.83995311	     -7.49999987	      3.48488991	     -6.08633983	     -6.38260116	      0.70833207	      0.01236273	      8.05981781	     -1.72022229	     -7.49999987	      6.16125607	      5.20866601	     -2.28830813	     -0.00898805	     -0.01618074	     -0.00703243	    -10.00974677	      5.13855267	      4.24016867	     30.15154353	     82.86236477	     -0.02474565	      0.02810030	     -0.00538688	      7.46663898	     71.83008460	    -14.65977285	     99.99538623	     82.25662399
      2.57627120	     -6.50377982	     -1.18400538	      1.11967627	      0.28809823	      0.92815504	     -0.05591161	      3.63646732	     -6.91272653	     -9.06552127	      0.60561887	      0.01057004	      2.03140607	     -1.05543371	     -7.49999987	      3.44610011	     -5.99781973	     -6.41979025	      0.66101031	      0.01153681	      8.29299389	     -1.68242517	     -7.49999987	      5.86899487	      5.48584963	     -2.42994925	     -0.00784117	     -0.01603521	     -0.00699214	    -10.75136563	      5.21298454	      3.87921439	     31.28248995	     83.17128648	     -0.02457743	      0.02763374	     -0.00543025	      7.09374792	     71.68263818	    -15.83548358	    100.24432392	     82.39442039
      2.59322030	     -6.59414050	     -1.14870924	      1.03649488	      0.28787359	      0.93118115	     -0.05585841	      3.83467547	     -6.99398972	     -9.02963060	      0.58310546	      0.01017711	      1.98617231	     -1.00814551	     -7.49999987	      3.56670653	     -5.88463622	     -6.37335535	      0.61834244	      0.01079211	      8.23228505	     -1.77261716	     -7.49999987	      5.95455423	      5.68166537	     -2.56442639	     -0.00554329	     -0.01606361	     -0.00697876	    -10.78793798	      5.39018920	      4.16998679	     31.42116378	     82.64372465	     -0.02349811	      0.02653277	     -0.00543922	      6.47596897	     71.36526847	    -15.92149660	    100.39933487	     82.06281542
